<svg width="28" height="28" viewBox="0 0 28 28" fill="none" xmlns="http://www.w3.org/2000/svg">
<path d="M0 14C0 21.7339 6.26613 28 14 28C21.7339 28 28 21.7339 28 14C28 6.26613 21.7339 0 14 0C6.26613 0 0 6.26613 0 14ZM25.2903 14C25.2903 20.2379 20.2379 25.2903 14 25.2903C7.7621 25.2903 2.70968 20.2379 2.70968 14C2.70968 7.7621 7.7621 2.70968 14 2.70968C20.2379 2.70968 25.2903 7.7621 25.2903 14ZM21.2258 12.871V15.129C21.2258 15.5016 20.921 15.8065 20.5484 15.8065H14V19.5887C14 20.1927 13.2718 20.4919 12.8427 20.0685L7.25403 14.4798C6.98871 14.2145 6.98871 13.7855 7.25403 13.5202L12.8427 7.93145C13.2718 7.50242 14 7.80726 14 8.41129V12.1935H20.5484C20.921 12.1935 21.2258 12.4984 21.2258 12.871Z" fill="#666666"/>
</svg>
