<svg width="21" height="20" viewBox="0 0 21 20" fill="none" xmlns="http://www.w3.org/2000/svg">
<path d="M14.6781 3.18283L17.9667 6.6376C18.1052 6.78315 18.1052 7.02061 17.9667 7.16616L10.0042 15.5311L6.62083 15.9256C6.16875 15.9793 5.78594 15.5771 5.83698 15.1022L6.2125 11.5478L14.175 3.18283C14.3135 3.03729 14.5396 3.03729 14.6781 3.18283ZM20.5844 2.30573L18.8052 0.436634C18.251 -0.145545 17.3505 -0.145545 16.7927 0.436634L15.5021 1.7925C15.3635 1.93804 15.3635 2.17551 15.5021 2.32105L18.7906 5.77582C18.9292 5.92137 19.1552 5.92137 19.2937 5.77582L20.5844 4.41996C21.1385 3.83395 21.1385 2.88791 20.5844 2.30573ZM14 13.2561V17.1551H2.33333V4.89873H10.7115C10.8281 4.89873 10.9375 4.84894 11.0214 4.76467L12.4797 3.23262C12.7568 2.94153 12.5599 2.44745 12.1698 2.44745H1.75C0.783854 2.44745 0 3.27092 0 4.28591V17.7679C0 18.7829 0.783854 19.6064 1.75 19.6064H14.5833C15.5495 19.6064 16.3333 18.7829 16.3333 17.7679V11.724C16.3333 11.3142 15.863 11.1112 15.5859 11.3984L14.1276 12.9305C14.0474 13.0186 14 13.1335 14 13.2561Z" fill="#666666"/>
</svg>
