<svg width="28" height="28" viewBox="0 0 28 28" fill="none" xmlns="http://www.w3.org/2000/svg">
<path d="M14 0C6.26719 0 0 6.26719 0 14C0 21.7328 6.26719 28 14 28C21.7328 28 28 21.7328 28 14C28 6.26719 21.7328 0 14 0ZM12.6875 8.3125C12.6875 7.59062 13.2781 7 14 7C14.7219 7 15.3125 7.58789 15.3125 8.3125V15.3125C15.3125 16.0371 14.7246 16.625 14 16.625C13.2754 16.625 12.6875 16.0398 12.6875 15.3125V8.3125ZM14 21.875C13.0506 21.875 12.2806 21.105 12.2806 20.1556C12.2806 19.2062 13.0501 18.4362 14 18.4362C14.9499 18.4362 15.7194 19.2062 15.7194 20.1556C15.7172 21.1039 14.9516 21.875 14 21.875Z" fill="#FF3815"/>
</svg>
