<svg width="22" height="18" viewBox="0 0 22 18" fill="none" xmlns="http://www.w3.org/2000/svg">
<path d="M8.52958 12.4074C8.52958 13.3871 8.03 14.9902 6.8475 14.9902C5.665 14.9902 5.16542 13.3871 5.16542 12.4074C5.16542 11.4278 5.665 9.82471 6.8475 9.82471C8.03 9.82471 8.52958 11.4278 8.52958 12.4074ZM22 10.0403C22 11.5356 21.8533 13.1199 21.1979 14.4933C19.4608 18.0838 14.685 17.9995 11.2658 17.9995C7.79167 17.9995 2.73167 18.126 0.925833 14.4933C0.256667 13.134 0 11.5356 0 10.0403C0 8.07632 0.637083 6.22013 1.90208 4.71548C1.66375 3.97488 1.54917 3.19678 1.54917 2.42805C1.54917 1.42027 1.77375 0.914035 2.21833 0C4.29458 0 5.62375 0.421862 7.205 1.68745C8.53417 1.36402 9.9 1.21871 11.2704 1.21871C12.5079 1.21871 13.7546 1.35465 14.9554 1.64995C16.5138 0.398425 17.8429 0 19.8962 0C20.3454 0.914035 20.5654 1.42027 20.5654 2.42805C20.5654 3.19678 20.4463 3.96082 20.2125 4.68736C21.4729 6.20607 22 8.07632 22 10.0403ZM19.0529 12.4074C19.0529 10.3497 17.8292 8.53568 15.6842 8.53568C14.8179 8.53568 13.9883 8.69505 13.1175 8.81693C12.4346 8.92473 11.7517 8.96692 11.0504 8.96692C10.3538 8.96692 9.67083 8.92473 8.98333 8.81693C8.12625 8.69505 7.2875 8.53568 6.41667 8.53568C4.27167 8.53568 3.04792 10.3497 3.04792 12.4074C3.04792 16.5229 6.73292 17.1557 9.94125 17.1557H12.1504C15.3725 17.1557 19.0529 16.5276 19.0529 12.4074ZM15.2671 9.82471C14.0846 9.82471 13.585 11.4278 13.585 12.4074C13.585 13.3871 14.0846 14.9902 15.2671 14.9902C16.4496 14.9902 16.9492 13.3871 16.9492 12.4074C16.9492 11.4278 16.4496 9.82471 15.2671 9.82471Z" fill="white"/>
</svg>
