<svg width="57" height="57" viewBox="0 0 57 57" fill="none" xmlns="http://www.w3.org/2000/svg">
<path d="M28.0166 13.6473C20.0681 13.6473 13.6568 20.0601 13.6568 28.0103C13.6568 35.9606 20.0681 42.3733 28.0166 42.3733C35.9651 42.3733 42.3763 35.9606 42.3763 28.0103C42.3763 20.0601 35.9651 13.6473 28.0166 13.6473ZM28.0166 37.3481C22.88 37.3481 18.6808 33.1605 18.6808 28.0103C18.6808 22.8601 22.8675 18.6725 28.0166 18.6725C33.1656 18.6725 37.3523 22.8601 37.3523 28.0103C37.3523 33.1605 33.1531 37.3481 28.0166 37.3481ZM46.3131 13.0598C46.3131 14.9224 44.8134 16.4099 42.9637 16.4099C41.1016 16.4099 39.6144 14.9099 39.6144 13.0598C39.6144 11.2098 41.1141 9.7097 42.9637 9.7097C44.8134 9.7097 46.3131 11.2098 46.3131 13.0598ZM55.8238 16.4599C55.6113 11.9723 54.5865 7.99715 51.2997 4.72203C48.0253 1.44692 44.051 0.421889 39.5644 0.196882C34.9403 -0.0656272 21.0804 -0.0656272 16.4563 0.196882C11.9821 0.409389 8.00786 1.43442 4.72098 4.70953C1.4341 7.98464 0.421795 11.9598 0.196838 16.4474C-0.0656126 21.0726 -0.0656126 34.9356 0.196838 39.5607C0.409297 44.0484 1.4341 48.0235 4.72098 51.2986C8.00786 54.5737 11.9696 55.5988 16.4563 55.8238C21.0804 56.0863 34.9403 56.0863 39.5644 55.8238C44.051 55.6113 48.0253 54.5862 51.2997 51.2986C54.574 48.0235 55.5988 44.0484 55.8238 39.5607C56.0863 34.9356 56.0863 21.0851 55.8238 16.4599ZM49.8499 44.5234C48.8751 46.9735 46.988 48.861 44.5259 49.8486C40.8391 51.3111 32.0908 50.9736 28.0166 50.9736C23.9423 50.9736 15.1815 51.2986 11.5072 49.8486C9.05766 48.8735 7.17052 46.986 6.1832 44.5234C4.72098 40.8358 5.05842 32.0855 5.05842 28.0103C5.05842 23.9352 4.73348 15.1724 6.1832 11.4973C7.15802 9.04718 9.04516 7.15962 11.5072 6.17208C15.194 4.70953 23.9423 5.04705 28.0166 5.04705C32.0908 5.04705 40.8516 4.72203 44.5259 6.17208C46.9755 7.14712 48.8626 9.03468 49.8499 11.4973C51.3122 15.1849 50.9747 23.9352 50.9747 28.0103C50.9747 32.0855 51.3122 40.8483 49.8499 44.5234Z" fill="white"/>
</svg>
