<svg width="22" height="17" viewBox="0 0 22 17" fill="none" xmlns="http://www.w3.org/2000/svg">
<path d="M21.5832 5.61354C21.7508 5.4763 22 5.60469 22 5.82161V14.875C22 16.0482 21.0762 17 19.9375 17H2.0625C0.923828 17 0 16.0482 0 14.875V5.82604C0 5.60469 0.244922 5.48073 0.416797 5.61797C1.3793 6.38828 2.65547 7.36667 7.03828 10.6471C7.94492 11.3289 9.47461 12.7633 11 12.7544C12.534 12.7677 14.0937 11.3023 14.966 10.6471C19.3488 7.36667 20.6207 6.38385 21.5832 5.61354ZM11 11.3333C11.9969 11.351 13.432 10.0406 14.1539 9.50052C19.8559 5.23724 20.2898 4.86536 21.6047 3.80286C21.8539 3.60365 22 3.29375 22 2.96615V2.125C22 0.951823 21.0762 0 19.9375 0H2.0625C0.923828 0 0 0.951823 0 2.125V2.96615C0 3.29375 0.146094 3.59922 0.395312 3.80286C1.71016 4.86094 2.14414 5.23724 7.84609 9.50052C8.56797 10.0406 10.0031 11.351 11 11.3333Z" fill="white"/>
</svg>
