<svg width="22" height="19" viewBox="0 0 22 19" fill="none" xmlns="http://www.w3.org/2000/svg">
<path d="M0 1.6875C0 0.824707 0.703705 0.125 1.57143 0.125H20.4286C21.2978 0.125 22 0.824707 22 1.6875C22 2.55176 21.2978 3.25 20.4286 3.25H1.57143C0.703705 3.25 0 2.55176 0 1.6875ZM0 9.5C0 8.63574 0.703705 7.9375 1.57143 7.9375H20.4286C21.2978 7.9375 22 8.63574 22 9.5C22 10.3643 21.2978 11.0625 20.4286 11.0625H1.57143C0.703705 11.0625 0 10.3643 0 9.5ZM20.4286 18.875H1.57143C0.703705 18.875 0 18.1768 0 17.3125C0 16.4482 0.703705 15.75 1.57143 15.75H20.4286C21.2978 15.75 22 16.4482 22 17.3125C22 18.1768 21.2978 18.875 20.4286 18.875Z" fill="white"/>
</svg>
