<svg width="83" height="83" viewBox="0 0 83 83" fill="none" xmlns="http://www.w3.org/2000/svg">
<path d="M71.4066 9.24829L45.4854 28.5003L50.2788 17.1419L71.4066 9.24829Z" fill="#E2761B" stroke="#E2761B" stroke-linecap="round" stroke-linejoin="round"/>
<path d="M11.6284 9.24829L37.3412 28.6827L32.7822 17.1419L11.6284 9.24829Z" fill="#E4761B" stroke="#E4761B" stroke-linecap="round" stroke-linejoin="round"/>
<path d="M62.1424 53.8743L55.2388 64.4512L70.0099 68.5152L74.2563 54.1087L62.1424 53.8743Z" fill="#E4761B" stroke="#E4761B" stroke-linecap="round" stroke-linejoin="round"/>
<path d="M8.89307 54.1087L13.1134 68.5152L27.8846 64.4512L20.981 53.8743L8.89307 54.1087Z" fill="#E4761B" stroke="#E4761B" stroke-linecap="round" stroke-linejoin="round"/>
<path d="M27.0507 36.0032L22.9346 42.2295L37.6016 42.8808L37.0805 27.1196L27.0507 36.0032Z" fill="#E4761B" stroke="#E4761B" stroke-linecap="round" stroke-linejoin="round"/>
<path d="M56.0466 36.0032L45.8865 26.9373L45.5479 42.8807L60.1888 42.2295L56.0466 36.0032Z" fill="#E4761B" stroke="#E4761B" stroke-linecap="round" stroke-linejoin="round"/>
<path d="M27.8848 64.4514L36.6902 60.1529L29.0831 54.2131L27.8848 64.4514Z" fill="#E4761B" stroke="#E4761B" stroke-linecap="round" stroke-linejoin="round"/>
<path d="M46.4077 60.1529L55.2392 64.4514L54.0148 54.2131L46.4077 60.1529Z" fill="#E4761B" stroke="#E4761B" stroke-linecap="round" stroke-linejoin="round"/>
<path d="M55.1772 64.4513L46.3457 60.1528L47.0491 65.9102L46.9709 68.333L55.1772 64.4513Z" fill="#D7C1B3" stroke="#D7C1B3" stroke-linecap="round" stroke-linejoin="round"/>
<path d="M27.8223 64.4513L36.0285 68.333L35.9764 65.9102L36.6277 60.1528L27.8223 64.4513Z" fill="#D7C1B3" stroke="#D7C1B3" stroke-linecap="round" stroke-linejoin="round"/>
<path d="M36.16 50.4096L28.8135 48.2474L33.9977 45.8767L36.16 50.4096Z" fill="#233447" stroke="#233447" stroke-linecap="round" stroke-linejoin="round"/>
<path d="M46.8145 50.4096L48.9767 45.8767L54.187 48.2474L46.8145 50.4096Z" fill="#233447" stroke="#233447" stroke-linecap="round" stroke-linejoin="round"/>
<path d="M27.8236 64.4516L29.074 53.8748L20.9199 54.1092L27.8236 64.4516Z" fill="#CD6116" stroke="#CD6116" stroke-linecap="round" stroke-linejoin="round"/>
<path d="M53.9268 53.8748L55.1772 64.4516L62.0809 54.1092L53.9268 53.8748Z" fill="#CD6116" stroke="#CD6116" stroke-linecap="round" stroke-linejoin="round"/>
<path d="M60.1282 42.2295L45.4873 42.8808L46.842 50.4096L49.0043 45.8767L54.2145 48.2474L60.1282 42.2295Z" fill="#CD6116" stroke="#CD6116" stroke-linecap="round" stroke-linejoin="round"/>
<path d="M28.8138 48.2474L34.0241 45.8767L36.1603 50.4096L37.541 42.8808L22.874 42.2295L28.8138 48.2474Z" fill="#CD6116" stroke="#CD6116" stroke-linecap="round" stroke-linejoin="round"/>
<path d="M22.8735 42.2295L29.0217 54.2132L28.8133 48.2474L22.8735 42.2295Z" fill="#E4751F" stroke="#E4751F" stroke-linecap="round" stroke-linejoin="round"/>
<path d="M54.2122 48.2474L53.9517 54.2132L60.1259 42.2295L54.2122 48.2474Z" fill="#E4751F" stroke="#E4751F" stroke-linecap="round" stroke-linejoin="round"/>
<path d="M37.5409 42.8809L36.1602 50.4097L37.8795 59.2933L38.2703 47.5962L37.5409 42.8809Z" fill="#E4751F" stroke="#E4751F" stroke-linecap="round" stroke-linejoin="round"/>
<path d="M45.4861 42.8809L44.7827 47.5701L45.0953 59.2933L46.8408 50.4097L45.4861 42.8809Z" fill="#E4751F" stroke="#E4751F" stroke-linecap="round" stroke-linejoin="round"/>
<path d="M46.8411 50.4098L45.0957 59.2934L46.3462 60.1531L53.9532 54.2133L54.2137 48.2476L46.8411 50.4098Z" fill="#F6851B" stroke="#F6851B" stroke-linecap="round" stroke-linejoin="round"/>
<path d="M28.8135 48.2476L29.0219 54.2133L36.6289 60.1531L37.8794 59.2934L36.16 50.4098L28.8135 48.2476Z" fill="#F6851B" stroke="#F6851B" stroke-linecap="round" stroke-linejoin="round"/>
<path d="M46.9701 68.3329L47.0483 65.9101L46.397 65.3369H36.5756L35.9764 65.9101L36.0285 68.3329L27.8223 64.4512L30.6879 66.7958L36.4974 70.8338H46.4751L52.3107 66.7958L55.1763 64.4512L46.9701 68.3329Z" fill="#C0AD9E" stroke="#C0AD9E" stroke-linecap="round" stroke-linejoin="round"/>
<path d="M46.3455 60.1529L45.0951 59.2932H37.8788L36.6283 60.1529L35.9771 65.9103L36.5762 65.3372H46.3976L47.0489 65.9103L46.3455 60.1529Z" fill="#161616" stroke="#161616" stroke-linecap="round" stroke-linejoin="round"/>
<path d="M72.5024 29.7508L74.7167 19.1218L71.4082 9.24829L46.3467 27.8491L55.9857 36.0032L69.6106 39.989L72.6326 36.4721L71.33 35.5342L73.4142 33.6325L71.799 32.382L73.8831 30.7929L72.5024 29.7508Z" fill="#763D16" stroke="#763D16" stroke-linecap="round" stroke-linejoin="round"/>
<path d="M8.28516 19.1218L10.4995 29.7508L9.09275 30.7929L11.1769 32.382L9.58773 33.6325L11.6718 35.5342L10.3693 36.4721L13.3652 39.989L26.9901 36.0032L36.6292 27.8491L11.5676 9.24829L8.28516 19.1218Z" fill="#763D16" stroke="#763D16" stroke-linecap="round" stroke-linejoin="round"/>
<path d="M69.6091 39.989L55.9842 36.0032L60.1263 42.2295L53.9521 54.2132L62.0802 54.1089H74.1941L69.6091 39.989Z" fill="#F6851B" stroke="#F6851B" stroke-linecap="round" stroke-linejoin="round"/>
<path d="M26.9889 36.0032L13.364 39.989L8.83105 54.1089H20.9189L29.0209 54.2132L22.8728 42.2295L26.9889 36.0032Z" fill="#F6851B" stroke="#F6851B" stroke-linecap="round" stroke-linejoin="round"/>
<path d="M45.4859 42.8807L46.3456 27.849L50.3055 17.1418H32.7207L36.6284 27.849L37.5402 42.8807L37.8529 47.6221L37.8789 59.2931H45.0952L45.1473 47.6221L45.4859 42.8807Z" fill="#F6851B" stroke="#F6851B" stroke-linecap="round" stroke-linejoin="round"/>
</svg>
