<svg width="32" height="32" viewBox="0 0 32 32" fill="none" xmlns="http://www.w3.org/2000/svg">
<g clip-path="url(#clip0_804_710)">
<path d="M27.5303 3.56555L17.5366 10.988L19.3847 6.60887L27.5303 3.56555Z" fill="#E2761B" stroke="#E2761B" stroke-linecap="round" stroke-linejoin="round"/>
<path d="M4.4834 3.56555L14.3968 11.0583L12.6391 6.60887L4.4834 3.56555Z" fill="#E4761B" stroke="#E4761B" stroke-linecap="round" stroke-linejoin="round"/>
<path d="M23.9585 20.7709L21.2969 24.8487L26.9918 26.4156L28.6289 20.8613L23.9585 20.7709Z" fill="#E4761B" stroke="#E4761B" stroke-linecap="round" stroke-linejoin="round"/>
<path d="M3.42871 20.8613L5.05583 26.4156L10.7507 24.8487L8.0891 20.7709L3.42871 20.8613Z" fill="#E4761B" stroke="#E4761B" stroke-linecap="round" stroke-linejoin="round"/>
<path d="M10.4292 13.8807L8.84229 16.2812L14.497 16.5323L14.2961 10.4557L10.4292 13.8807Z" fill="#E4761B" stroke="#E4761B" stroke-linecap="round" stroke-linejoin="round"/>
<path d="M21.6083 13.8807L17.6911 10.3854L17.5605 16.5323L23.2052 16.2812L21.6083 13.8807Z" fill="#E4761B" stroke="#E4761B" stroke-linecap="round" stroke-linejoin="round"/>
<path d="M10.751 24.8486L14.1458 23.1914L11.213 20.9014L10.751 24.8486Z" fill="#E4761B" stroke="#E4761B" stroke-linecap="round" stroke-linejoin="round"/>
<path d="M17.8921 23.1914L21.297 24.8486L20.8249 20.9014L17.8921 23.1914Z" fill="#E4761B" stroke="#E4761B" stroke-linecap="round" stroke-linejoin="round"/>
<path d="M21.2731 24.8487L17.8682 23.1914L18.1394 25.4111L18.1092 26.3452L21.2731 24.8487Z" fill="#D7C1B3" stroke="#D7C1B3" stroke-linecap="round" stroke-linejoin="round"/>
<path d="M10.7266 24.8487L13.8904 26.3452L13.8703 25.4111L14.1214 23.1914L10.7266 24.8487Z" fill="#D7C1B3" stroke="#D7C1B3" stroke-linecap="round" stroke-linejoin="round"/>
<path d="M13.9413 19.435L11.1089 18.6014L13.1076 17.6874L13.9413 19.435Z" fill="#233447" stroke="#233447" stroke-linecap="round" stroke-linejoin="round"/>
<path d="M18.0488 19.435L18.8825 17.6874L20.8913 18.6014L18.0488 19.435Z" fill="#233447" stroke="#233447" stroke-linecap="round" stroke-linejoin="round"/>
<path d="M10.7271 24.8487L11.2092 20.7709L8.06543 20.8613L10.7271 24.8487Z" fill="#CD6116" stroke="#CD6116" stroke-linecap="round" stroke-linejoin="round"/>
<path d="M20.791 20.7709L21.2731 24.8487L23.9348 20.8613L20.791 20.7709Z" fill="#CD6116" stroke="#CD6116" stroke-linecap="round" stroke-linejoin="round"/>
<path d="M23.1818 16.2812L17.5371 16.5323L18.0594 19.435L18.893 17.6874L20.9018 18.6014L23.1818 16.2812Z" fill="#CD6116" stroke="#CD6116" stroke-linecap="round" stroke-linejoin="round"/>
<path d="M11.1089 18.6014L13.1177 17.6874L13.9413 19.435L14.4736 16.5323L8.81885 16.2812L11.1089 18.6014Z" fill="#CD6116" stroke="#CD6116" stroke-linecap="round" stroke-linejoin="round"/>
<path d="M8.81885 16.2812L11.1892 20.9015L11.1089 18.6014L8.81885 16.2812Z" fill="#E4751F" stroke="#E4751F" stroke-linecap="round" stroke-linejoin="round"/>
<path d="M20.9012 18.6014L20.8008 20.9015L23.1812 16.2812L20.9012 18.6014Z" fill="#E4751F" stroke="#E4751F" stroke-linecap="round" stroke-linejoin="round"/>
<path d="M14.4737 16.5323L13.9414 19.435L14.6043 22.86L14.755 18.3503L14.4737 16.5323Z" fill="#E4751F" stroke="#E4751F" stroke-linecap="round" stroke-linejoin="round"/>
<path d="M17.5368 16.5323L17.2656 18.3403L17.3862 22.86L18.0591 19.435L17.5368 16.5323Z" fill="#E4751F" stroke="#E4751F" stroke-linecap="round" stroke-linejoin="round"/>
<path d="M18.0592 19.4351L17.3862 22.8601L17.8683 23.1915L20.8012 20.9015L20.9016 18.6014L18.0592 19.4351Z" fill="#F6851B" stroke="#F6851B" stroke-linecap="round" stroke-linejoin="round"/>
<path d="M11.1089 18.6014L11.1892 20.9015L14.1221 23.1915L14.6042 22.8601L13.9413 19.4351L11.1089 18.6014Z" fill="#F6851B" stroke="#F6851B" stroke-linecap="round" stroke-linejoin="round"/>
<path d="M18.1089 26.3453L18.139 25.4112L17.8879 25.1903H14.1013L13.8703 25.4112L13.8904 26.3453L10.7266 24.8488L11.8314 25.7527L14.0712 27.3095H17.918L20.1679 25.7527L21.2727 24.8488L18.1089 26.3453Z" fill="#C0AD9E" stroke="#C0AD9E" stroke-linecap="round" stroke-linejoin="round"/>
<path d="M17.8681 23.1914L17.386 22.86H14.6038L14.1217 23.1914L13.8706 25.4111L14.1016 25.1902H17.8882L18.1393 25.4111L17.8681 23.1914Z" fill="#161616" stroke="#161616" stroke-linecap="round" stroke-linejoin="round"/>
<path d="M27.9528 11.4701L28.8065 7.37221L27.5309 3.56555L17.8687 10.7369L21.5849 13.8807L26.8379 15.4174L28.003 14.0615L27.5008 13.6999L28.3043 12.9667L27.6816 12.4846L28.4851 11.8719L27.9528 11.4701Z" fill="#763D16" stroke="#763D16" stroke-linecap="round" stroke-linejoin="round"/>
<path d="M3.19434 7.37221L4.04807 11.4701L3.5057 11.8719L4.30921 12.4846L3.69653 12.9667L4.50005 13.6999L3.99785 14.0615L5.1529 15.4174L10.4059 13.8807L14.1221 10.7369L4.45987 3.56555L3.19434 7.37221Z" fill="#763D16" stroke="#763D16" stroke-linecap="round" stroke-linejoin="round"/>
<path d="M26.8372 15.4175L21.5842 13.8807L23.1812 16.2812L20.8008 20.9015L23.9345 20.8613H28.6049L26.8372 15.4175Z" fill="#F6851B" stroke="#F6851B" stroke-linecap="round" stroke-linejoin="round"/>
<path d="M10.4054 13.8807L5.15243 15.4175L3.40479 20.8613H8.06517L11.1888 20.9015L8.81847 16.2812L10.4054 13.8807Z" fill="#F6851B" stroke="#F6851B" stroke-linecap="round" stroke-linejoin="round"/>
<path d="M17.5368 16.5323L17.8682 10.7369L19.3949 6.60889H12.6152L14.1218 10.7369L14.4734 16.5323L14.5939 18.3603L14.6039 22.86H17.3861L17.4062 18.3603L17.5368 16.5323Z" fill="#F6851B" stroke="#F6851B" stroke-linecap="round" stroke-linejoin="round"/>
</g>
<defs>
<clipPath id="clip0_804_710">
<rect width="32" height="32" fill="white"/>
</clipPath>
</defs>
</svg>
