<svg width="420" height="420" viewBox="0 0 420 420" fill="none" xmlns="http://www.w3.org/2000/svg">
<path d="M361.337 46.7985L230.169 144.218L254.426 86.742L361.337 46.7985Z" fill="#E2761B" stroke="#E2761B" stroke-linecap="round" stroke-linejoin="round"/>
<path d="M58.8418 46.7985L188.955 145.141L165.885 86.742L58.8418 46.7985Z" fill="#E4761B" stroke="#E4761B" stroke-linecap="round" stroke-linejoin="round"/>
<path d="M314.454 272.618L279.52 326.139L354.265 346.704L375.753 273.804L314.454 272.618Z" fill="#E4761B" stroke="#E4761B" stroke-linecap="round" stroke-linejoin="round"/>
<path d="M45 273.804L66.3559 346.704L141.102 326.139L106.168 272.618L45 273.804Z" fill="#E4761B" stroke="#E4761B" stroke-linecap="round" stroke-linejoin="round"/>
<path d="M136.883 182.184L116.055 213.691L190.273 216.987L187.637 137.232L136.883 182.184Z" fill="#E4761B" stroke="#E4761B" stroke-linecap="round" stroke-linejoin="round"/>
<path d="M283.607 182.185L232.194 136.309L230.48 216.987L304.567 213.691L283.607 182.185Z" fill="#E4761B" stroke="#E4761B" stroke-linecap="round" stroke-linejoin="round"/>
<path d="M141.102 326.139L185.659 304.388L147.166 274.332L141.102 326.139Z" fill="#E4761B" stroke="#E4761B" stroke-linecap="round" stroke-linejoin="round"/>
<path d="M234.831 304.388L279.52 326.139L273.324 274.332L234.831 304.388Z" fill="#E4761B" stroke="#E4761B" stroke-linecap="round" stroke-linejoin="round"/>
<path d="M279.209 326.139L234.52 304.388L238.079 333.522L237.684 345.782L279.209 326.139Z" fill="#D7C1B3" stroke="#D7C1B3" stroke-linecap="round" stroke-linejoin="round"/>
<path d="M140.791 326.139L182.316 345.782L182.053 333.522L185.348 304.388L140.791 326.139Z" fill="#D7C1B3" stroke="#D7C1B3" stroke-linecap="round" stroke-linejoin="round"/>
<path d="M182.975 255.085L145.8 244.143L172.034 232.147L182.975 255.085Z" fill="#233447" stroke="#233447" stroke-linecap="round" stroke-linejoin="round"/>
<path d="M236.893 255.085L247.834 232.147L274.2 244.143L236.893 255.085Z" fill="#233447" stroke="#233447" stroke-linecap="round" stroke-linejoin="round"/>
<path d="M140.791 326.139L147.119 272.618L105.857 273.804L140.791 326.139Z" fill="#CD6116" stroke="#CD6116" stroke-linecap="round" stroke-linejoin="round"/>
<path d="M272.881 272.618L279.209 326.139L314.143 273.804L272.881 272.618Z" fill="#CD6116" stroke="#CD6116" stroke-linecap="round" stroke-linejoin="round"/>
<path d="M304.256 213.691L230.169 216.987L237.024 255.085L247.966 232.147L274.331 244.143L304.256 213.691Z" fill="#CD6116" stroke="#CD6116" stroke-linecap="round" stroke-linejoin="round"/>
<path d="M145.801 244.143L172.166 232.147L182.976 255.085L189.963 216.987L115.744 213.691L145.801 244.143Z" fill="#CD6116" stroke="#CD6116" stroke-linecap="round" stroke-linejoin="round"/>
<path d="M115.744 213.691L146.855 274.331L145.8 244.143L115.744 213.691Z" fill="#E4751F" stroke="#E4751F" stroke-linecap="round" stroke-linejoin="round"/>
<path d="M274.331 244.143L273.013 274.331L304.256 213.691L274.331 244.143Z" fill="#E4751F" stroke="#E4751F" stroke-linecap="round" stroke-linejoin="round"/>
<path d="M189.962 216.987L182.975 255.085L191.676 300.038L193.653 240.847L189.962 216.987Z" fill="#E4751F" stroke="#E4751F" stroke-linecap="round" stroke-linejoin="round"/>
<path d="M230.169 216.987L226.61 240.716L228.192 300.038L237.024 255.085L230.169 216.987Z" fill="#E4751F" stroke="#E4751F" stroke-linecap="round" stroke-linejoin="round"/>
<path d="M237.025 255.085L228.192 300.038L234.52 304.388L273.013 274.331L274.332 244.143L237.025 255.085Z" fill="#F6851B" stroke="#F6851B" stroke-linecap="round" stroke-linejoin="round"/>
<path d="M145.8 244.143L146.855 274.331L185.348 304.388L191.676 300.038L182.975 255.085L145.8 244.143Z" fill="#F6851B" stroke="#F6851B" stroke-linecap="round" stroke-linejoin="round"/>
<path d="M237.684 345.782L238.079 333.522L234.784 330.622H185.085L182.053 333.522L182.316 345.782L140.791 326.139L155.292 338.004L184.689 358.437H235.179L264.708 338.004L279.209 326.139L237.684 345.782Z" fill="#C0AD9E" stroke="#C0AD9E" stroke-linecap="round" stroke-linejoin="round"/>
<path d="M234.52 304.388L228.192 300.038H191.676L185.348 304.388L182.053 333.522L185.085 330.621H234.783L238.079 333.522L234.52 304.388Z" fill="#161616" stroke="#161616" stroke-linecap="round" stroke-linejoin="round"/>
<path d="M366.874 150.546L378.079 96.7608L361.337 46.7985L234.52 140.923L283.296 182.185L352.241 202.354L367.533 184.557L360.942 179.812L371.488 170.188L363.315 163.861L373.861 155.819L366.874 150.546Z" fill="#763D16" stroke="#763D16" stroke-linecap="round" stroke-linejoin="round"/>
<path d="M41.9209 96.7608L53.1262 150.546L46.0075 155.819L56.5537 163.861L48.5122 170.188L59.0584 179.812L52.467 184.557L67.6271 202.354L136.572 182.185L185.348 140.923L58.5311 46.7985L41.9209 96.7608Z" fill="#763D16" stroke="#763D16" stroke-linecap="round" stroke-linejoin="round"/>
<path d="M352.241 202.354L283.296 182.185L304.256 213.691L273.013 274.331L314.143 273.804H375.443L352.241 202.354Z" fill="#F6851B" stroke="#F6851B" stroke-linecap="round" stroke-linejoin="round"/>
<path d="M136.573 182.185L67.6273 202.354L44.6895 273.804H105.857L146.855 274.331L115.744 213.691L136.573 182.185Z" fill="#F6851B" stroke="#F6851B" stroke-linecap="round" stroke-linejoin="round"/>
<path d="M230.169 216.987L234.52 140.923L254.557 86.7419H165.574L185.348 140.923L189.962 216.987L191.544 240.979L191.676 300.038H228.192L228.456 240.979L230.169 216.987Z" fill="#F6851B" stroke="#F6851B" stroke-linecap="round" stroke-linejoin="round"/>
<path d="M156.03 400V395.541C156.03 394.319 155.367 393.565 153.989 393.565C152.962 393.565 152.195 394.059 151.792 394.527V391.329H150.128V400H151.792V395.762C152.065 395.398 152.572 395.034 153.222 395.034C153.924 395.034 154.379 395.307 154.379 396.178V400H156.03ZM159.775 400.156C160.464 400.156 160.906 399.974 161.153 399.753L160.802 398.492C160.711 398.596 160.477 398.687 160.23 398.687C159.866 398.687 159.658 398.388 159.658 397.985V395.164H160.932V393.721H159.658V392.005H158.007V393.721H156.967V395.164H158.007V398.427C158.007 399.558 158.618 400.156 159.775 400.156ZM164.167 400.156C164.856 400.156 165.298 399.974 165.545 399.753L165.194 398.492C165.103 398.596 164.869 398.687 164.622 398.687C164.258 398.687 164.05 398.388 164.05 397.985V395.164H165.324V393.721H164.05V392.005H162.399V393.721H161.359V395.164H162.399V398.427C162.399 399.558 163.01 400.156 164.167 400.156ZM170.042 400.156C171.654 400.156 172.824 398.947 172.824 396.854C172.824 394.761 171.654 393.565 170.042 393.565C169.275 393.565 168.586 393.903 168.105 394.514V393.721H166.454V402.392H168.105V399.194C168.625 399.844 169.301 400.156 170.042 400.156ZM169.522 398.687C168.989 398.687 168.378 398.362 168.105 397.959V395.749C168.391 395.333 168.989 395.034 169.522 395.034C170.471 395.034 171.121 395.775 171.121 396.854C171.121 397.946 170.471 398.687 169.522 398.687ZM176.295 400.156C178.037 400.156 179.025 399.311 179.025 398.154C179.025 395.619 175.294 396.399 175.294 395.476C175.294 395.125 175.684 394.865 176.282 394.865C177.049 394.865 177.764 395.203 178.141 395.593L178.804 394.423C178.18 393.929 177.335 393.565 176.282 393.565C174.618 393.565 173.708 394.488 173.708 395.541C173.708 398.011 177.426 397.166 177.426 398.193C177.426 398.583 177.088 398.856 176.373 398.856C175.593 398.856 174.67 398.427 174.202 397.985L173.487 399.181C174.15 399.792 175.203 400.156 176.295 400.156ZM181.073 395.736C181.645 395.736 182.126 395.255 182.126 394.683C182.126 394.111 181.645 393.63 181.073 393.63C180.501 393.63 180.02 394.111 180.02 394.683C180.02 395.255 180.501 395.736 181.073 395.736ZM181.073 400.143C181.645 400.143 182.126 399.662 182.126 399.09C182.126 398.518 181.645 398.037 181.073 398.037C180.501 398.037 180.02 398.518 180.02 399.09C180.02 399.662 180.501 400.143 181.073 400.143ZM183.804 400.26L186.885 391.069H185.689L182.608 400.26H183.804ZM188.083 400.26L191.164 391.069H189.968L186.887 400.26H188.083ZM201.435 400V395.463C201.435 394.176 200.746 393.565 199.589 393.565C198.627 393.565 197.795 394.137 197.431 394.696C197.21 393.994 196.612 393.565 195.689 393.565C194.727 393.565 193.908 394.163 193.635 394.527V393.721H191.984V400H193.635V395.762C193.882 395.424 194.363 395.034 194.935 395.034C195.611 395.034 195.871 395.45 195.871 396.035V400H197.535V395.762C197.769 395.424 198.25 395.034 198.835 395.034C199.511 395.034 199.771 395.45 199.771 396.035V400H201.435ZM206.018 400.156C206.993 400.156 207.981 399.857 208.605 399.285L207.864 398.193C207.461 398.583 206.733 398.804 206.2 398.804C205.134 398.804 204.51 398.167 204.393 397.4H209.06V397.01C209.06 394.969 207.799 393.565 205.914 393.565C204.016 393.565 202.664 395.034 202.664 396.854C202.664 398.869 204.107 400.156 206.018 400.156ZM207.474 396.256H204.38C204.445 395.632 204.887 394.917 205.914 394.917C207.006 394.917 207.422 395.658 207.474 396.256ZM212.359 400.156C213.048 400.156 213.49 399.974 213.737 399.753L213.386 398.492C213.295 398.596 213.061 398.687 212.814 398.687C212.45 398.687 212.242 398.388 212.242 397.985V395.164H213.516V393.721H212.242V392.005H210.591V393.721H209.551V395.164H210.591V398.427C210.591 399.558 211.202 400.156 212.359 400.156ZM220.625 400V393.721H218.961V394.527C218.454 393.877 217.765 393.565 217.024 393.565C215.425 393.565 214.242 394.813 214.242 396.854C214.242 398.96 215.451 400.156 217.024 400.156C217.791 400.156 218.467 399.818 218.961 399.194V400H220.625ZM217.544 398.687C216.595 398.687 215.945 397.946 215.945 396.854C215.945 395.775 216.595 395.034 217.544 395.034C218.09 395.034 218.688 395.346 218.961 395.762V397.972C218.688 398.388 218.09 398.687 217.544 398.687ZM231.713 400V395.463C231.713 394.176 231.024 393.565 229.867 393.565C228.905 393.565 228.073 394.137 227.709 394.696C227.488 393.994 226.89 393.565 225.967 393.565C225.005 393.565 224.186 394.163 223.913 394.527V393.721H222.262V400H223.913V395.762C224.16 395.424 224.641 395.034 225.213 395.034C225.889 395.034 226.149 395.45 226.149 396.035V400H227.813V395.762C228.047 395.424 228.528 395.034 229.113 395.034C229.789 395.034 230.049 395.45 230.049 396.035V400H231.713ZM239.325 400V393.721H237.661V394.527C237.154 393.877 236.465 393.565 235.724 393.565C234.125 393.565 232.942 394.813 232.942 396.854C232.942 398.96 234.151 400.156 235.724 400.156C236.491 400.156 237.167 399.818 237.661 399.194V400H239.325ZM236.244 398.687C235.295 398.687 234.645 397.946 234.645 396.854C234.645 395.775 235.295 395.034 236.244 395.034C236.79 395.034 237.388 395.346 237.661 395.762V397.972C237.388 398.388 236.79 398.687 236.244 398.687ZM243.225 400.156C244.967 400.156 245.955 399.311 245.955 398.154C245.955 395.619 242.224 396.399 242.224 395.476C242.224 395.125 242.614 394.865 243.212 394.865C243.979 394.865 244.694 395.203 245.071 395.593L245.734 394.423C245.11 393.929 244.265 393.565 243.212 393.565C241.548 393.565 240.638 394.488 240.638 395.541C240.638 398.011 244.356 397.166 244.356 398.193C244.356 398.583 244.018 398.856 243.303 398.856C242.523 398.856 241.6 398.427 241.132 397.985L240.417 399.181C241.08 399.792 242.133 400.156 243.225 400.156ZM253.294 400L250.733 396.568L253.216 393.721H251.188L248.809 396.516V391.329H247.158V400H248.809V398.388L249.563 397.582L251.227 400H253.294ZM254.973 400.143C255.545 400.143 256.026 399.662 256.026 399.09C256.026 398.518 255.545 398.037 254.973 398.037C254.401 398.037 253.92 398.518 253.92 399.09C253.92 399.662 254.401 400.143 254.973 400.143ZM258.285 393.045C258.831 393.045 259.273 392.603 259.273 392.057C259.273 391.511 258.831 391.082 258.285 391.082C257.752 391.082 257.31 391.511 257.31 392.057C257.31 392.603 257.752 393.045 258.285 393.045ZM259.117 400V393.721H257.466V400H259.117ZM263.667 400.156C265.747 400.156 266.995 398.635 266.995 396.854C266.995 395.073 265.747 393.565 263.667 393.565C261.6 393.565 260.352 395.073 260.352 396.854C260.352 398.635 261.6 400.156 263.667 400.156ZM263.667 398.687C262.64 398.687 262.068 397.842 262.068 396.854C262.068 395.879 262.64 395.034 263.667 395.034C264.707 395.034 265.279 395.879 265.279 396.854C265.279 397.842 264.707 398.687 263.667 398.687ZM268.609 400.26L271.69 391.069H270.494L267.413 400.26H268.609Z" fill="#666666"/>
</svg>
