<svg width="406" height="406" viewBox="0 0 406 406" fill="none" xmlns="http://www.w3.org/2000/svg">
<path d="M349.291 45.238L222.496 139.411L245.943 83.8501L349.291 45.238Z" fill="#E2761B" stroke="#E2761B" stroke-linecap="round" stroke-linejoin="round"/>
<path d="M56.8831 45.238L182.659 140.303L160.358 83.8501L56.8831 45.238Z" fill="#E4761B" stroke="#E4761B" stroke-linecap="round" stroke-linejoin="round"/>
<path d="M303.973 263.529L270.204 315.267L342.458 335.146L363.229 264.676L303.973 263.529Z" fill="#E4761B" stroke="#E4761B" stroke-linecap="round" stroke-linejoin="round"/>
<path d="M43.5017 264.676L64.1458 335.146L136.4 315.267L102.63 263.529L43.5017 264.676Z" fill="#E4761B" stroke="#E4761B" stroke-linecap="round" stroke-linejoin="round"/>
<path d="M132.32 176.111L112.186 206.568L183.931 209.753L181.382 132.657L132.32 176.111Z" fill="#E4761B" stroke="#E4761B" stroke-linecap="round" stroke-linejoin="round"/>
<path d="M274.155 176.111L224.456 131.765L222.8 209.753L294.417 206.567L274.155 176.111Z" fill="#E4761B" stroke="#E4761B" stroke-linecap="round" stroke-linejoin="round"/>
<path d="M136.402 315.267L179.474 294.241L142.263 265.186L136.402 315.267Z" fill="#E4761B" stroke="#E4761B" stroke-linecap="round" stroke-linejoin="round"/>
<path d="M227.006 294.241L270.206 315.267L264.216 265.186L227.006 294.241Z" fill="#E4761B" stroke="#E4761B" stroke-linecap="round" stroke-linejoin="round"/>
<path d="M269.902 315.268L226.702 294.241L230.143 322.404L229.76 334.255L269.902 315.268Z" fill="#D7C1B3" stroke="#D7C1B3" stroke-linecap="round" stroke-linejoin="round"/>
<path d="M136.094 315.268L176.235 334.255L175.98 322.404L179.166 294.241L136.094 315.268Z" fill="#D7C1B3" stroke="#D7C1B3" stroke-linecap="round" stroke-linejoin="round"/>
<path d="M176.88 246.582L140.944 236.005L166.303 224.409L176.88 246.582Z" fill="#233447" stroke="#233447" stroke-linecap="round" stroke-linejoin="round"/>
<path d="M228.995 246.582L239.572 224.409L265.058 236.005L228.995 246.582Z" fill="#233447" stroke="#233447" stroke-linecap="round" stroke-linejoin="round"/>
<path d="M136.1 315.269L142.216 263.531L102.33 264.678L136.1 315.269Z" fill="#CD6116" stroke="#CD6116" stroke-linecap="round" stroke-linejoin="round"/>
<path d="M263.786 263.531L269.903 315.269L303.672 264.678L263.786 263.531Z" fill="#CD6116" stroke="#CD6116" stroke-linecap="round" stroke-linejoin="round"/>
<path d="M294.119 206.568L222.502 209.754L229.129 246.582L239.706 224.409L265.192 236.005L294.119 206.568Z" fill="#CD6116" stroke="#CD6116" stroke-linecap="round" stroke-linejoin="round"/>
<path d="M140.944 236.005L166.43 224.409L176.88 246.582L183.633 209.754L111.889 206.568L140.944 236.005Z" fill="#CD6116" stroke="#CD6116" stroke-linecap="round" stroke-linejoin="round"/>
<path d="M111.888 206.568L141.962 265.187L140.943 236.005L111.888 206.568Z" fill="#E4751F" stroke="#E4751F" stroke-linecap="round" stroke-linejoin="round"/>
<path d="M265.184 236.005L263.91 265.187L294.111 206.568L265.184 236.005Z" fill="#E4751F" stroke="#E4751F" stroke-linecap="round" stroke-linejoin="round"/>
<path d="M183.635 209.754L176.881 246.582L185.291 290.037L187.203 232.819L183.635 209.754Z" fill="#E4751F" stroke="#E4751F" stroke-linecap="round" stroke-linejoin="round"/>
<path d="M222.498 209.754L219.058 232.692L220.587 290.037L229.125 246.582L222.498 209.754Z" fill="#E4751F" stroke="#E4751F" stroke-linecap="round" stroke-linejoin="round"/>
<path d="M229.126 246.582L220.588 290.037L226.705 294.242L263.915 265.188L265.189 236.006L229.126 246.582Z" fill="#F6851B" stroke="#F6851B" stroke-linecap="round" stroke-linejoin="round"/>
<path d="M140.944 236.006L141.963 265.188L179.173 294.242L185.29 290.037L176.88 246.582L140.944 236.006Z" fill="#F6851B" stroke="#F6851B" stroke-linecap="round" stroke-linejoin="round"/>
<path d="M229.756 334.255L230.139 322.403L226.953 319.6H178.911L175.98 322.403L176.235 334.255L136.094 315.267L150.111 326.736L178.529 346.488H227.335L255.88 326.736L269.898 315.267L229.756 334.255Z" fill="#C0AD9E" stroke="#C0AD9E" stroke-linecap="round" stroke-linejoin="round"/>
<path d="M226.701 294.242L220.585 290.037H185.286L179.169 294.242L175.983 322.405L178.914 319.601H226.956L230.142 322.405L226.701 294.242Z" fill="#161616" stroke="#161616" stroke-linecap="round" stroke-linejoin="round"/>
<path d="M354.65 145.527L365.482 93.535L349.298 45.238L226.708 136.225L273.858 176.111L340.505 195.608L355.287 178.405L348.916 173.817L359.11 164.515L351.209 158.398L361.404 150.625L354.65 145.527Z" fill="#763D16" stroke="#763D16" stroke-linecap="round" stroke-linejoin="round"/>
<path d="M40.5271 93.535L51.3589 145.527L44.4775 150.625L54.6721 158.398L46.8987 164.515L57.0933 173.817L50.7217 178.405L65.3764 195.608L132.024 176.111L179.174 136.225L56.5836 45.238L40.5271 93.535Z" fill="#763D16" stroke="#763D16" stroke-linecap="round" stroke-linejoin="round"/>
<path d="M340.497 195.609L273.85 176.112L294.112 206.568L263.91 265.187L303.669 264.677H362.925L340.497 195.609Z" fill="#F6851B" stroke="#F6851B" stroke-linecap="round" stroke-linejoin="round"/>
<path d="M132.018 176.112L65.3708 195.609L43.1975 264.677H102.326L141.958 265.187L111.884 206.568L132.018 176.112Z" fill="#F6851B" stroke="#F6851B" stroke-linecap="round" stroke-linejoin="round"/>
<path d="M222.497 209.754L226.703 136.225L246.073 83.8503H160.055L179.17 136.225L183.63 209.754L185.16 232.946L185.287 290.036H220.586L220.841 232.946L222.497 209.754Z" fill="#F6851B" stroke="#F6851B" stroke-linecap="round" stroke-linejoin="round"/>
</svg>
