<svg width="28" height="28" viewBox="0 0 28 28" fill="none" xmlns="http://www.w3.org/2000/svg">
<path d="M28 14C28 6.2661 21.7339 0 14 0C6.2661 0 0 6.2661 0 14C0 21.7339 6.2661 28 14 28C21.7339 28 28 21.7339 28 14ZM2.7097 14C2.7097 7.7621 7.7621 2.7097 14 2.7097C20.2379 2.7097 25.2903 7.7621 25.2903 14C25.2903 20.2379 20.2379 25.2903 14 25.2903C7.7621 25.2903 2.7097 20.2379 2.7097 14ZM6.7742 15.129V12.871C6.7742 12.4984 7.079 12.1935 7.4516 12.1935H14V8.4113C14 7.8073 14.7282 7.5081 15.1573 7.9315L20.746 13.5202C21.0113 13.7855 21.0113 14.2145 20.746 14.4798L15.1573 20.0686C14.7282 20.4976 14 20.1927 14 19.5887V15.8065H7.4516C7.079 15.8065 6.7742 15.5016 6.7742 15.129Z" fill="#666666"/>
</svg>
