<svg width="18" height="20" viewBox="0 0 18 20" fill="none" xmlns="http://www.w3.org/2000/svg">
<path d="M9 20C10.4191 20 11.5702 18.8809 11.5702 17.5H6.42978C6.42978 18.8809 7.5809 20 9 20ZM17.654 14.152C16.8778 13.341 15.4253 12.1211 15.4253 8.125C15.4253 5.08984 13.2364 2.66016 10.2849 2.06406V1.25C10.2849 0.559766 9.70955 0 9 0C8.29045 0 7.71509 0.559766 7.71509 1.25V2.06406C4.76358 2.66016 2.57466 5.08984 2.57466 8.125C2.57466 12.1211 1.12221 13.341 0.345964 14.152C0.104894 14.4039 -0.00198114 14.7051 2.77789e-05 15C0.00444741 15.6406 0.521544 16.25 1.28976 16.25H16.7102C17.4785 16.25 17.996 15.6406 18 15C18.002 14.7051 17.8951 14.4035 17.654 14.152Z" fill="white"/>
</svg>
