<svg width="34" height="34" viewBox="0 0 34 34" fill="none" xmlns="http://www.w3.org/2000/svg">
<path d="M34 17C34 26.3889 26.3889 34 17 34C7.61113 34 0 26.3889 0 17C0 7.61113 7.61113 0 17 0C26.3889 0 34 7.61113 34 17ZM15.0336 26.0014L27.6465 13.3885C28.0748 12.9602 28.0748 12.2657 27.6465 11.8374L26.0955 10.2864C25.6672 9.85801 24.9727 9.85801 24.5444 10.2864L14.2581 20.5726L9.45563 15.7702C9.02734 15.3419 8.33288 15.3419 7.90452 15.7702L6.35348 17.3212C5.92519 17.7495 5.92519 18.444 6.35348 18.8723L13.4825 26.0013C13.9109 26.4297 14.6053 26.4297 15.0336 26.0014Z" fill="#6CB14B"/>
</svg>
