<svg width="22" height="27" viewBox="0 0 22 27" fill="none" xmlns="http://www.w3.org/2000/svg">
<path d="M22 10.8262C19.8374 10.8317 17.7279 10.1235 15.9694 8.80189V18.0195C15.9688 19.7267 15.4718 21.393 14.5449 22.7956C13.618 24.1982 12.3053 25.2703 10.7824 25.8685C9.25955 26.4667 7.59903 26.5625 6.02291 26.143C4.44679 25.7236 3.03019 24.8089 1.96254 23.5213C0.894881 22.2337 0.22706 20.6346 0.0483709 18.9377C-0.130319 17.2409 0.18864 15.5272 0.962599 14.0258C1.73656 12.5244 2.92862 11.3069 4.3794 10.536C5.83018 9.76521 7.47052 9.47778 9.08108 9.71219V14.3483C8.34408 14.1049 7.55268 14.1123 6.81989 14.3693C6.0871 14.6263 5.4504 15.1199 5.0007 15.7795C4.55101 16.4391 4.31132 17.231 4.31588 18.0422C4.32043 18.8534 4.56898 19.6423 5.02604 20.2963C5.48311 20.9504 6.1253 21.436 6.86092 21.684C7.59655 21.9319 8.38797 21.9294 9.12219 21.6769C9.8564 21.4244 10.4959 20.9348 10.9492 20.278C11.4026 19.6211 11.6467 18.8307 11.6467 18.0195V0H15.9694C15.9664 0.383279 15.9969 0.766035 16.0607 1.14343C16.2109 1.98591 16.5233 2.78735 16.9786 3.49875C17.4339 4.21014 18.0227 4.81653 18.7089 5.28082C19.6851 5.95857 20.8297 6.31981 22 6.31955V10.8262Z" fill="white"/>
</svg>
