<svg width="47" height="57" viewBox="0 0 47 57" fill="none" xmlns="http://www.w3.org/2000/svg">
<path d="M46.6839 22.9732C42.0949 22.9847 37.6184 21.4821 33.8869 18.6775V38.2372C33.8856 41.8599 32.831 45.3958 30.8642 48.3722C28.8973 51.3485 26.1118 53.6235 22.8803 54.8928C19.6487 56.1622 16.1251 56.3654 12.7806 55.4753C9.43606 54.5853 6.43005 52.6444 4.16449 49.9121C1.89893 47.1798 0.481821 43.7865 0.102643 40.1857C-0.276535 36.585 0.400294 32.9486 2.04263 29.7626C3.68496 26.5767 6.21452 23.9932 9.29306 22.3574C12.3716 20.7217 15.8524 20.1118 19.27 20.6092V30.4471C17.7061 29.9306 16.0267 29.9461 14.4718 30.4915C12.9168 31.0369 11.5657 32.0842 10.6115 33.4839C9.65722 34.8837 9.1486 36.5642 9.15826 38.2855C9.16792 40.0068 9.69535 41.6809 10.6652 43.0687C11.6351 44.4565 12.9979 45.4871 14.5588 46.0132C16.1198 46.5393 17.7992 46.5341 19.3572 45.9983C20.9152 45.4625 22.2721 44.4235 23.2342 43.0297C24.1962 41.6359 24.7142 39.9586 24.7142 38.2372V0H33.8869C33.8805 0.813315 33.9454 1.62552 34.0808 2.42635C34.3995 4.21408 35.0623 5.91475 36.0285 7.42432C36.9947 8.9339 38.244 10.2207 39.7001 11.2059C41.7717 12.6441 44.2004 13.4106 46.6839 13.4101V22.9732Z" fill="white"/>
</svg>
