<svg width="26" height="23" viewBox="0 0 26 23" fill="none" xmlns="http://www.w3.org/2000/svg">
<path d="M22.75 0C23.6488 0 24.375 0.727695 24.375 1.625C24.375 2.5223 23.6488 3.25 22.75 3.25H4.0625C3.61359 3.25 3.25 3.61562 3.25 4.0625C3.25 4.50938 3.61359 4.875 4.0625 4.875H22.75C24.5426 4.875 26 6.33242 26 8.125V19.5C26 21.2926 24.5426 22.75 22.75 22.75H3.25C1.45488 22.75 0 21.2926 0 19.5V3.25C0 1.45488 1.45488 0 3.25 0H22.75ZM21.125 15.4375C22.0238 15.4375 22.75 14.7113 22.75 13.8125C22.75 12.9137 22.0238 12.1875 21.125 12.1875C20.2262 12.1875 19.5 12.9137 19.5 13.8125C19.5 14.7113 20.2262 15.4375 21.125 15.4375Z" fill="white" fill-opacity="0.5"/>
</svg>
