<svg width="34" height="34" viewBox="0 0 34 34" fill="none" xmlns="http://www.w3.org/2000/svg">
<path d="M17 0C7.61016 0 0 7.61016 0 17C0 26.3898 7.61016 34 17 34C26.3898 34 34 26.3898 34 17C34 7.61016 26.3898 0 17 0ZM15.4062 10.0938C15.4062 9.21719 16.1234 8.5 17 8.5C17.8766 8.5 18.5938 9.21387 18.5938 10.0938V18.5938C18.5938 19.4736 17.8799 20.1875 17 20.1875C16.1201 20.1875 15.4062 19.477 15.4062 18.5938V10.0938ZM17 26.5625C15.8472 26.5625 14.9122 25.6275 14.9122 24.4747C14.9122 23.3219 15.8465 22.3869 17 22.3869C18.1535 22.3869 19.0878 23.3219 19.0878 24.4747C19.0852 25.6262 18.1555 26.5625 17 26.5625Z" fill="#F4B12F"/>
</svg>
