<svg width="13" height="14" viewBox="0 0 13 14" fill="none" xmlns="http://www.w3.org/2000/svg">
<path d="M12.6181 11.1172C13.1259 11.6055 13.1259 12.3965 12.6181 12.8848C12.3663 13.1289 12.0331 13.25 11.7 13.25C11.3669 13.25 11.0346 13.1279 10.7811 12.8838L6.5 8.76953L2.21934 12.8828C1.96544 13.1289 1.63272 13.25 1.3 13.25C0.967281 13.25 0.634969 13.1289 0.380859 12.8828C-0.126953 12.3945 -0.126953 11.6035 0.380859 11.1152L4.66273 6.99805L0.380859 2.88281C-0.126953 2.39453 -0.126953 1.60352 0.380859 1.11523C0.888672 0.626953 1.71133 0.626953 2.21914 1.11523L6.5 5.23437L10.7819 1.11719C11.2897 0.628906 12.1123 0.628906 12.6202 1.11719C13.128 1.60547 13.128 2.39648 12.6202 2.88477L8.33828 7.00195L12.6181 11.1172Z" fill="#666666"/>
</svg>
