<svg width="28" height="20" viewBox="0 0 28 20" fill="none" xmlns="http://www.w3.org/2000/svg">
<path d="M27.4136 3.10898C27.0916 1.88522 26.1428 0.92142 24.9382 0.594341C22.7547 0 13.9993 0 13.9993 0C13.9993 0 5.24394 0 3.06043 0.594341C1.85581 0.921471 0.907066 1.88522 0.585059 3.10898C0 5.32713 0 9.95508 0 9.95508C0 9.95508 0 14.583 0.585059 16.8012C0.907066 18.0249 1.85581 18.9486 3.06043 19.2757C5.24394 19.87 13.9993 19.87 13.9993 19.87C13.9993 19.87 22.7547 19.87 24.9382 19.2757C26.1428 18.9486 27.0916 18.0249 27.4136 16.8012C27.9986 14.583 27.9986 9.95508 27.9986 9.95508C27.9986 9.95508 27.9986 5.32713 27.4136 3.10898V3.10898ZM11.1358 14.1569V5.75324L18.4536 9.95518L11.1358 14.1569V14.1569Z" fill="white"/>
</svg>
